<svg width="1428" height="957" viewBox="0 0 1428 957" fill="none" xmlns="http://www.w3.org/2000/svg">
<path d="M3.57001 940.188L23.1497 951.61" stroke="#71717A" stroke-width="2" stroke-linecap="round"/>
<path d="M321.85 951.609C321.85 951.609 325.219 903.429 322.896 879.108C320.452 853.517 314.643 826.02 306.691 801.823C298.773 777.73 287.899 754.904 275.353 734.199C262.473 712.942 246.412 692.407 230.069 676.237C214.336 660.669 196.691 647.785 179.397 638.296C163.015 629.307 146.631 623.384 129.166 619.828C110.825 616.094 91.3822 615.36 71.7588 617.227C50.7886 619.223 7.1757 632.58 7.1757 632.58" stroke="#71717A" stroke-width="2" stroke-linecap="round"/>
<path d="M791.701 502.347C792.127 511.864 795.362 523.677 799.848 531.328C804.227 538.801 810.963 543.776 818.05 547.998C826.252 552.885 834.735 556.325 846.754 557.302C866.469 558.904 907.955 552.21 925.689 544.959C935.479 540.957 941.256 537.07 947.217 530.084C953.301 522.951 959.857 511.173 961.665 502.347C963.034 495.667 962.356 489.785 960.603 483.026C958.249 473.941 952.409 462.448 945.961 454.044C938.764 444.665 928.094 436.366 918.513 430.606C909.341 425.092 901.116 420.775 889.809 419.711C874.051 418.226 848.315 419.957 832.402 430.215C817.685 439.7 802.72 461.674 796.522 476.006C792.561 485.167 791.303 493.441 791.701 502.347Z" stroke="#71717A" stroke-width="2" stroke-linecap="round"/>
<path d="M1294.05 951.609C1294.05 951.609 1278.01 923.57 1273 908.089C1268.09 892.923 1265.01 875.992 1264.07 859.786C1263.14 843.788 1264.19 827.252 1267.23 811.484C1270.4 795.021 1276.44 777.274 1283.24 763.181C1289.57 750.067 1297.44 738.92 1306.01 729.054C1314.59 719.172 1321.88 711.463 1334.71 703.951C1355.8 691.611 1424.43 673.855 1424.43 673.855" stroke="#71717A" stroke-width="2" stroke-linecap="round"/>
<path d="M526.729 951.61C526.729 951.61 514.886 848.983 504.554 811.484C496.98 783.992 489.458 764.157 477.09 743.86C463.718 721.915 446.645 706.74 425.704 685.897C396.354 656.685 350.163 616.605 315.189 589.291C285.307 565.955 257.461 544.49 229.628 529.988C205.178 517.248 182.003 507.936 157.869 503.959C134.156 500.052 110.385 501.219 86.1102 505.849C60.2036 510.791 7.1757 534.343 7.1757 534.343" stroke="#71717A" stroke-width="2" stroke-linecap="round"/>
<path d="M1152 951.61C1152 951.61 1146.31 776.462 1136.72 734.199C1132.41 715.239 1128.01 705.321 1121.08 695.557C1114.78 686.681 1108.47 681.254 1097.91 676.657C1079.87 668.801 1053.93 668.114 1018.98 668C949.883 667.778 777.316 700.894 710.412 699.837C678.114 699.327 657.762 697.732 638.653 690.146C624.707 684.609 612.294 678.584 604.503 666.576C596.734 654.602 592.784 636.913 591.909 618.274C590.755 593.703 598.112 562.915 605.766 531.328C615.639 490.581 633.92 434.98 650.54 396.081C664.514 363.371 680.478 332.002 696.06 311.07C707.788 295.316 718.331 285.281 731.94 276.394C746.735 266.732 764.684 260.228 782.171 256.881C800.491 253.374 819.969 254.29 839.578 256.758C860.564 259.398 882.884 265.299 904.161 273.302C925.952 281.499 948.308 292.326 968.744 305.722C988.947 318.967 1008.84 335.709 1026.15 353.048C1042.32 369.247 1053.51 383.305 1069.9 405.742C1094.35 439.214 1131.76 510.327 1155.32 538.692C1168.91 555.06 1176.73 563.813 1191.2 571.861C1208.95 581.741 1229.04 584.705 1255.78 587.906C1298.62 593.033 1424.43 586.744 1424.43 586.744" stroke="#71717A" stroke-width="2" stroke-linecap="round"/>
<path d="M846.754 951.603C846.754 951.603 811.033 932.402 803.699 917.985C798.068 906.919 797.083 889.338 799.214 879.108C800.921 870.918 805.906 865.598 811.307 859.786C818.261 852.303 827.711 845.504 838.986 840.465C854.46 833.55 879.102 827.436 896.985 827.64C912.416 827.815 928.628 830.086 940.04 838.169C949.92 845.168 959.983 856.665 963.071 869.447C966.329 882.927 963.886 904.5 957.53 917.75C950.39 932.635 919.039 951.609 919.039 951.609" stroke="#71717A" stroke-width="2" stroke-linecap="round"/>
<path d="M1424.43 506.638C1424.43 506.638 1346.19 503.075 1313.19 492.74C1285.14 483.959 1259.69 471.254 1237.87 454.044C1217.93 438.321 1204.53 420.873 1186.27 396.081C1160.85 361.589 1128.38 289.391 1103.83 260.834C1088.8 243.353 1081.51 240.546 1062.03 226.968C1021.48 198.698 907.976 145.052 868.281 112.394C848.468 96.091 838.735 85.3986 827.444 67.6241C815.998 49.6068 800.264 4.78196 800.264 4.78196" stroke="#71717A" stroke-width="2" stroke-linecap="round"/>
<path d="M480.8 4.78196C480.8 4.78196 492.815 66.523 492.001 96.6051C491.204 126.092 486.336 152.072 476.505 183.549C462.92 227.049 426.718 301.869 409.025 328.348C400.816 340.636 395.121 346.435 387.498 351.136C380.68 355.34 376.648 357.038 365.97 356.805C334.511 356.12 225.943 320.33 180.397 299.476C152.35 286.634 129.865 274.93 114.814 258.963C104.341 247.852 99.9252 237.341 93.2868 222.054C84.426 201.653 75.9107 175.005 69.5757 144.908C61.313 105.654 52.7914 4.78196 52.7914 4.78196" stroke="#71717A" stroke-width="2" stroke-linecap="round"/>
<path d="M1424.43 248.955C1424.43 248.955 1346.33 223.998 1320.36 206.187C1302.44 193.894 1285.82 178.713 1279.05 164.229C1274.63 154.78 1274.4 144.855 1274.72 135.247C1275.05 125.534 1276.85 118.29 1281.1 106.266C1289.65 82.0357 1332.57 4.78196 1332.57 4.78196" stroke="#71717A" stroke-width="2" stroke-linecap="round"/>
<path d="M320.976 4.78196C320.976 4.78196 323.449 20.7668 322.272 28.9811C320.914 38.4457 317.079 50.0444 311.793 57.9633C306.186 66.3616 296.914 73.2811 288.922 77.2836C281.44 81.0303 273.696 82.3178 265.507 82.117C256.413 81.8946 245.317 79.1426 236.804 74.7444C229.074 70.7515 222.114 65.2952 216.222 57.9633C210.065 50.3014 204.033 38.9227 200.925 29.2859C198.308 21.1733 197.308 4.78196 197.308 4.78196" stroke="#71717A" stroke-width="2" stroke-linecap="round"/>
<path d="M1206.44 4.78196C1206.44 4.78196 1163.26 38.3836 1140.96 47.7574C1119.86 56.6291 1097.89 61.3322 1076.38 61.0608C1054.84 60.7894 1032.15 55.4922 1011.8 46.0837C991.508 36.7051 954.423 4.78196 954.423 4.78196" stroke="#71717A" stroke-width="2" stroke-linecap="round"/>
</svg>
